<svg width="20" height="15" viewBox="0 0 20 15" fill="none" xmlns="http://www.w3.org/2000/svg">
<path d="M19.1992 2.91307C18.9784 2.08163 18.3278 1.42681 17.5017 1.20459C16.0044 0.800781 10.0004 0.800781 10.0004 0.800781C10.0004 0.800781 3.99641 0.800781 2.49908 1.20459C1.67301 1.42684 1.02241 2.08163 0.801593 2.91307C0.400391 4.42011 0.400391 7.56441 0.400391 7.56441C0.400391 7.56441 0.400391 10.7087 0.801593 12.2158C1.02241 13.0472 1.67301 13.6747 2.49908 13.897C3.99641 14.3008 10.0004 14.3008 10.0004 14.3008C10.0004 14.3008 16.0044 14.3008 17.5017 13.897C18.3278 13.6747 18.9784 13.0472 19.1992 12.2158C19.6004 10.7087 19.6004 7.56441 19.6004 7.56441C19.6004 7.56441 19.6004 4.42011 19.1992 2.91307ZM8.03674 10.4192V4.70962L13.0549 7.56448L8.03674 10.4192Z" fill="#777E90"/>
</svg>
