<svg width="20" height="20" viewBox="0 0 20 20" fill="none" xmlns="http://www.w3.org/2000/svg">
<path d="M10.0025 5.07671C7.27834 5.07671 5.08099 7.27406 5.08099 9.99825C5.08099 12.7224 7.27834 14.9198 10.0025 14.9198C12.7267 14.9198 14.9241 12.7224 14.9241 9.99825C14.9241 7.27406 12.7267 5.07671 10.0025 5.07671ZM10.0025 13.1979C8.24209 13.1979 6.80289 11.763 6.80289 9.99825C6.80289 8.23352 8.2378 6.79861 10.0025 6.79861C11.7673 6.79861 13.2022 8.23352 13.2022 9.99825C13.2022 11.763 11.763 13.1979 10.0025 13.1979ZM16.2733 4.87539C16.2733 5.51361 15.7593 6.02332 15.1254 6.02332C14.4872 6.02332 13.9775 5.50933 13.9775 4.87539C13.9775 4.24146 14.4915 3.72746 15.1254 3.72746C15.7593 3.72746 16.2733 4.24146 16.2733 4.87539ZM19.5329 6.04046C19.4601 4.50274 19.1089 3.14065 17.9824 2.01842C16.8601 0.896185 15.498 0.544953 13.9603 0.467853C12.3755 0.377903 7.62529 0.377903 6.04046 0.467853C4.50703 0.54067 3.14493 0.891902 2.01842 2.01413C0.891902 3.13636 0.544953 4.49846 0.467853 6.03617C0.377903 7.621 0.377903 12.3712 0.467853 13.956C0.54067 15.4938 0.891902 16.8559 2.01842 17.9781C3.14493 19.1003 4.50274 19.4515 6.04046 19.5286C7.62529 19.6186 12.3755 19.6186 13.9603 19.5286C15.498 19.4558 16.8601 19.1046 17.9824 17.9781C19.1046 16.8559 19.4558 15.4938 19.5329 13.956C19.6229 12.3712 19.6229 7.62529 19.5329 6.04046ZM17.4855 15.6565C17.1514 16.4961 16.5046 17.1428 15.6608 17.4812C14.3972 17.9824 11.3989 17.8667 10.0025 17.8667C8.60617 17.8667 5.60356 17.9781 4.34426 17.4812C3.50473 17.1471 2.85795 16.5003 2.51957 15.6565C2.01842 14.3929 2.13407 11.3946 2.13407 9.99825C2.13407 8.60189 2.0227 5.59928 2.51957 4.33998C2.85366 3.50045 3.50045 2.85366 4.34426 2.51528C5.60784 2.01413 8.60617 2.12978 10.0025 2.12978C11.3989 2.12978 14.4015 2.01842 15.6608 2.51528C16.5003 2.84938 17.1471 3.49616 17.4855 4.33998C17.9866 5.60356 17.871 8.60189 17.871 9.99825C17.871 11.3946 17.9866 14.3972 17.4855 15.6565Z" fill="#777E90"/>
</svg>
