<svg width="16" height="16" viewBox="0 0 16 16" fill="none" xmlns="http://www.w3.org/2000/svg">
<path d="M7.99996 16C12.4111 16 15.9999 12.4112 15.9999 8.00005C15.9999 3.58883 12.4111 0 7.99996 0C3.58878 0 0 3.58883 0 8.00005C0 12.4112 3.58878 16 7.99996 16ZM2.78408 11.9497C3.41797 11.7004 4.21608 11.5017 5.11314 11.3656C5.23493 12.0968 5.39658 12.7746 5.59585 13.3726C5.70024 13.6857 5.81015 13.9621 5.92371 14.2077C4.66296 13.7849 3.5724 12.9881 2.78408 11.9497ZM1.45454 8.00005C1.45454 7.04272 1.66118 6.13276 2.03204 5.3124C2.8186 5.64913 3.8122 5.90964 4.93152 6.07783C4.87702 6.69897 4.84846 7.34342 4.84846 8.00005C4.84846 8.65663 4.87702 9.30113 4.93152 9.92222C3.8122 10.0905 2.81856 10.351 2.03209 10.6877C1.66118 9.86733 1.45454 8.95738 1.45454 8.00005ZM7.99996 1.45454C8.15657 1.45454 8.613 1.85361 9.02425 3.0874C9.19327 3.59455 9.33227 4.16972 9.43952 4.7925C8.97198 4.82518 8.48985 4.84244 7.99977 4.84244C7.50983 4.84244 7.02785 4.82523 6.56041 4.7925C6.66765 4.16972 6.80666 3.5946 6.97573 3.08745C7.38697 1.85361 7.84336 1.45454 7.99996 1.45454ZM7.99977 6.29698C8.5538 6.29698 9.09693 6.27662 9.62298 6.23778C9.67157 6.80529 9.69692 7.39612 9.69692 8.00005C9.69692 8.60397 9.67157 9.19471 9.62303 9.76222C9.09698 9.72338 8.55395 9.70302 7.99996 9.70302C7.44598 9.70302 6.90295 9.72338 6.37694 9.76222C6.32836 9.19471 6.303 8.60392 6.303 8.00005C6.303 7.39612 6.32836 6.80534 6.37694 6.23778C6.9029 6.27662 7.44588 6.29698 7.99977 6.29698ZM14.5454 8.00005C14.5454 8.95733 14.3387 9.86724 13.9679 10.6876C13.1813 10.3509 12.1877 10.0904 11.0684 9.92222C11.1229 9.30113 11.1515 8.65667 11.1515 8.00005C11.1515 7.34337 11.1229 6.69892 11.0684 6.07778C12.1877 5.90959 13.1813 5.64903 13.9678 5.31226C14.3387 6.13267 14.5454 7.04267 14.5454 8.00005ZM7.99996 14.5455C7.84336 14.5455 7.38697 14.1463 6.97577 12.9126C6.80671 12.4054 6.6677 11.8303 6.56041 11.2075C7.02794 11.1748 7.50993 11.1576 7.99996 11.1576C8.49 11.1576 8.97203 11.1748 9.43952 11.2075C9.33227 11.8303 9.19327 12.4055 9.02425 12.9126C8.613 14.1464 8.15662 14.5455 7.99996 14.5455ZM10.0763 14.2077C10.1898 13.9621 10.2997 13.6857 10.4041 13.3726C10.6034 12.7746 10.7651 12.0968 10.8869 11.3656C11.7838 11.5017 12.582 11.7003 13.2158 11.9496C12.4276 12.988 11.3371 13.7849 10.0763 14.2077ZM13.2157 4.05025C12.582 4.29956 11.7838 4.4983 10.8868 4.6344C10.765 3.90325 10.6034 3.22534 10.4041 2.62743C10.2998 2.31426 10.1898 2.03785 10.0763 1.79223C11.337 2.21511 12.4275 3.01186 13.2157 4.05025ZM5.92371 1.79228C5.81015 2.03781 5.70029 2.31426 5.59585 2.62743C5.39658 3.22544 5.23493 3.9033 5.11314 4.63449C4.21608 4.49835 3.41797 4.29966 2.78408 4.0504C3.57235 3.01196 4.66291 2.21507 5.92371 1.79228Z" fill="white"/>
</svg>
