<svg width="20" height="16" viewBox="0 0 20 16" fill="none" xmlns="http://www.w3.org/2000/svg">
<path d="M19.3686 0.335808C19.3529 0.264149 19.3185 0.197918 19.269 0.143818C19.2194 0.089719 19.1564 0.0496717 19.0864 0.0277302C18.8315 -0.0227667 18.5676 -0.00405978 18.3223 0.0819068C18.3223 0.0819068 1.31819 6.19414 0.347062 6.87094C0.138443 7.01649 0.068094 7.10139 0.0333241 7.20085C-0.134865 7.68601 0.388301 7.89463 0.388301 7.89463L4.77093 9.32262C4.84503 9.33592 4.92123 9.33148 4.9933 9.30968C5.98949 8.67978 15.02 2.97509 15.5448 2.78345C15.6256 2.75919 15.6879 2.78345 15.6717 2.84409C15.4631 3.57588 7.65926 10.508 7.6164 10.5501C7.59553 10.5672 7.57926 10.5892 7.5691 10.6142C7.55893 10.6392 7.55518 10.6664 7.55818 10.6932L7.14903 14.9723C7.14903 14.9723 6.97761 16.3041 8.30938 14.9723C9.25382 14.0271 10.1603 13.2443 10.6131 12.8635C12.1203 13.9042 13.7416 15.0548 14.441 15.6572C14.5587 15.7711 14.6981 15.8601 14.8509 15.9189C15.0037 15.9776 15.1668 16.005 15.3305 15.9993C15.532 15.9747 15.7212 15.8894 15.8731 15.7546C16.0249 15.6198 16.132 15.442 16.1803 15.2448C16.1803 15.2448 19.2773 2.77375 19.3808 1.10317C19.3913 0.941452 19.405 0.834716 19.4066 0.72232C19.4117 0.592352 19.3989 0.462307 19.3686 0.335808Z" fill="white"/>
</svg>
