<svg width="20" height="17" viewBox="0 0 20 17" fill="none" xmlns="http://www.w3.org/2000/svg">
<path d="M17.6268 4.68707C17.639 4.85762 17.639 5.02821 17.639 5.19876C17.639 10.4008 13.6796 16.3947 6.44305 16.3947C4.21359 16.3947 2.14254 15.749 0.400391 14.6282C0.717154 14.6648 1.02169 14.677 1.35064 14.677C3.19021 14.677 4.88365 14.0557 6.23594 12.9958C4.50598 12.9592 3.05623 11.8262 2.55672 10.2668C2.8004 10.3033 3.04404 10.3277 3.2999 10.3277C3.65319 10.3277 4.00652 10.2789 4.33543 10.1937C2.53239 9.82819 1.18006 8.24445 1.18006 6.33175V6.28304C1.7039 6.57543 2.31309 6.75817 2.95873 6.7825C1.89882 6.07589 1.20443 4.86981 1.20443 3.50533C1.20443 2.77438 1.39932 2.10432 1.74046 1.51955C3.67753 3.90737 6.58923 5.46674 9.85418 5.63732C9.79328 5.34494 9.75672 5.0404 9.75672 4.73582C9.75672 2.56726 11.511 0.800781 13.6918 0.800781C14.8247 0.800781 15.8481 1.27591 16.5669 2.04342C17.4562 1.87287 18.309 1.54392 19.0644 1.09317C18.7719 2.0069 18.1506 2.77441 17.3344 3.26169C18.1263 3.17645 18.8938 2.95711 19.6004 2.65258C19.0644 3.43224 18.3944 4.12663 17.6268 4.68707Z" fill="#777E90"/>
</svg>
