<svg width="21" height="16" viewBox="0 0 21 16" fill="none" xmlns="http://www.w3.org/2000/svg">
<path fill-rule="evenodd" clip-rule="evenodd" d="M20.061 1.89595C19.3211 2.21965 18.5812 2.45087 17.7489 2.54335C18.5812 2.03468 19.2287 1.24856 19.5061 0.3237C18.72 0.786127 17.8414 1.10983 16.9628 1.29479C16.2229 0.508667 15.1593 0 14.0032 0C11.7835 0 9.98004 1.80347 9.98004 4.02312C9.98004 4.34683 10.0263 4.67052 10.0725 4.94798C6.69678 4.76301 3.73722 3.19075 1.74876 0.739887C1.37882 1.34104 1.19385 2.03468 1.19385 2.77457C1.19385 4.16185 1.88749 5.41041 2.99733 6.15029C2.34992 6.15029 1.70252 5.96532 1.1476 5.64162V5.68786C1.1476 7.63006 2.5349 9.2948 4.38463 9.66473C4.06092 9.75722 3.69098 9.80347 3.32103 9.80347C3.04357 9.80347 2.81236 9.75722 2.58114 9.71099C3.08981 11.3295 4.5696 12.4855 6.37307 12.5318C4.98578 13.5954 3.27478 14.2428 1.37882 14.2428C1.05512 14.2428 0.731419 14.2428 0.407715 14.1965C2.2112 15.3526 4.29213 16 6.60429 16C14.0494 16 18.0726 9.84971 18.0726 4.53179C18.0726 4.34683 18.0726 4.16185 18.0726 4.02312C18.8587 3.42197 19.5524 2.68208 20.061 1.89595Z" fill="white"/>
</svg>
