<svg width="17" height="16" viewBox="0 0 17 16" fill="none" xmlns="http://www.w3.org/2000/svg">
<path d="M15.361 0H0.761035C0.361035 0 0.0610352 0.3 0.0610352 0.7V15.4C0.0610352 15.7 0.361035 16 0.761035 16H15.461C15.861 16 16.161 15.7 16.161 15.3V0.7C16.061 0.3 15.761 0 15.361 0ZM4.76103 13.6H2.46104V6H4.86104V13.6H4.76103ZM3.66104 5C2.86104 5 2.26104 4.3 2.26104 3.6C2.26104 2.8 2.86104 2.2 3.66104 2.2C4.46104 2.2 5.06104 2.8 5.06104 3.6C4.96104 4.3 4.36103 5 3.66104 5ZM13.661 13.6H11.261V9.9C11.261 9 11.261 7.9 10.061 7.9C8.86104 7.9 8.66104 8.9 8.66104 9.9V13.7H6.26103V6H8.56104V7C8.86104 6.4 9.66103 5.8 10.761 5.8C13.161 5.8 13.561 7.4 13.561 9.4V13.6H13.661Z" fill="#E5E5E5"/>
</svg>
