<svg width="14" height="14" viewBox="0 0 14 14" fill="none" xmlns="http://www.w3.org/2000/svg">
<path d="M6.99992 0.333008C6.63173 0.333008 6.33325 0.631485 6.33325 0.999674V2.99967C6.33325 3.36786 6.63173 3.66634 6.99992 3.66634C7.36811 3.66634 7.66659 3.36786 7.66659 2.99967V0.999674C7.66659 0.631485 7.36811 0.333008 6.99992 0.333008Z" fill="white"/>
<path d="M6.99992 10.333C6.63173 10.333 6.33325 10.6315 6.33325 10.9997V12.9997C6.33325 13.3679 6.63173 13.6663 6.99992 13.6663C7.36811 13.6663 7.66659 13.3679 7.66659 12.9997V10.9997C7.66659 10.6315 7.36811 10.333 6.99992 10.333Z" fill="white"/>
<path d="M12.9999 6.33301C13.3681 6.33301 13.6666 6.63148 13.6666 6.99967C13.6666 7.36786 13.3681 7.66634 12.9999 7.66634H10.9999C10.6317 7.66634 10.3333 7.36786 10.3333 6.99967C10.3333 6.63148 10.6317 6.33301 10.9999 6.33301H12.9999Z" fill="white"/>
<path d="M3.66659 6.99967C3.66659 6.63148 3.36811 6.33301 2.99992 6.33301H0.999919C0.631729 6.33301 0.333252 6.63148 0.333252 6.99967C0.333252 7.36786 0.631729 7.66634 0.999918 7.66634H2.99992C3.36811 7.66634 3.66659 7.36786 3.66659 6.99967Z" fill="white"/>
<path d="M10.7712 2.28569C11.0315 2.02535 11.4536 2.02535 11.714 2.28569C11.9743 2.54604 11.9743 2.96815 11.714 3.2285L10.2998 4.64272C10.0394 4.90307 9.61733 4.90307 9.35698 4.64272C9.09663 4.38237 9.09663 3.96026 9.35698 3.69991L10.7712 2.28569Z" fill="white"/>
<path d="M4.64287 9.35666C4.38252 9.09631 3.96041 9.09631 3.70006 9.35666L2.28585 10.7709C2.0255 11.0312 2.0255 11.4533 2.28585 11.7137C2.5462 11.974 2.96831 11.974 3.22866 11.7137L4.64287 10.2995C4.90322 10.0391 4.90322 9.61701 4.64287 9.35666Z" fill="white"/>
<path d="M11.714 10.7709C11.9743 11.0313 11.9743 11.4534 11.714 11.7138C11.4536 11.9741 11.0315 11.9741 10.7712 11.7138L9.35696 10.2995C9.09661 10.0392 9.09661 9.61708 9.35696 9.35673C9.61731 9.09638 10.0394 9.09638 10.2998 9.35673L11.714 10.7709Z" fill="white"/>
<path d="M4.64293 4.64263C4.90328 4.38228 4.90328 3.96017 4.64293 3.69982L3.22872 2.28561C2.96837 2.02526 2.54626 2.02526 2.28591 2.28561C2.02556 2.54596 2.02556 2.96807 2.28591 3.22841L3.70013 4.64263C3.96048 4.90298 4.38259 4.90298 4.64293 4.64263Z" fill="white"/>
</svg>
