<svg width="211" height="20" viewBox="0 0 211 20" fill="none" xmlns="http://www.w3.org/2000/svg">
<g clip-path="url(#clip0_312_691)">
<path d="M3.90501 0.967464C2.74406 0.967464 1.95251 1.10818 1.51275 1.40722C1.33685 1.54794 1.16095 1.75902 1.00264 2.04046C0.844327 2.32191 0.703606 2.67371 0.598065 3.07828C0.510114 3.37731 0.457344 3.69394 0.422164 4.02815C0.404573 4.36236 0.369393 4.71417 0.334213 5.08356L0.263852 5.9103H0L0.158311 0.52771H14.4943L14.6526 5.92789H14.3712C14.3712 4.78453 14.3008 3.88743 14.1425 3.25418C13.9842 2.62094 13.7027 2.146 13.3157 1.81179C13.1223 1.63589 12.9112 1.49517 12.6825 1.38963C12.4538 1.28409 12.19 1.19614 11.8909 1.12578C11.5919 1.073 11.2225 1.02023 10.8004 1.00264C10.3782 0.985054 9.88566 0.985054 9.32278 0.985054H9.19965V18.1706H10.3782V18.5576H4.60862V18.1706H5.62885V0.967464H3.90501Z" fill="white"/>
<path d="M22.41 18.1355H23.7469V18.5224H17.5903V18.1355H18.9272V0.967464H17.5903V0.52771H23.7469V0.967464H22.41V9.09411H30.4663V0.967464H29.1647V0.52771H35.0046V0.967464H33.6501V18.153H35.0046V18.54H29.1647V18.153H30.4663V9.58664H22.41V18.1355Z" fill="white"/>
<path d="M45.717 18.0651C47.9861 18.0651 49.3933 17.854 49.921 17.4318C50.5015 17.0097 50.8885 16.4996 51.0996 15.9015C51.3634 15.2155 51.4866 14.336 51.4866 13.2454H51.9791V18.54H38.2764V18.153H39.367V0.967464H38.2764V0.52771H51.5217L51.9439 4.96043H51.6625C51.4514 2.42745 50.6071 1.12578 49.1119 1.073C47.775 1.02023 46.6493 1.00264 45.717 1.00264H42.9553V9.07652H43.9932C44.6792 9.07652 45.2948 9.05893 45.8049 9.00616C46.3151 8.97098 46.7548 8.84785 47.089 8.63677C47.4408 8.44328 47.7047 8.12665 47.863 7.70449C48.0389 7.28233 48.1269 6.68426 48.1269 5.9103H48.4083V12.7353H48.1269C48.1269 12.0493 48.0565 11.4864 47.8982 11.0818C47.7575 10.6772 47.5464 10.3606 47.2649 10.1495C47.0011 9.93844 46.6669 9.81531 46.2799 9.74495C45.8929 9.69218 45.4707 9.657 44.9958 9.657H42.9026V18.0475H45.717V18.0651Z" fill="white"/>
<path d="M72.225 9.00612H72.2954C72.8935 9.19962 73.4388 9.4107 73.9665 9.65696C74.4942 9.90322 74.9515 10.2023 75.3385 10.5365C75.7255 10.8883 76.0245 11.2928 76.2532 11.7854C76.4643 12.2779 76.5874 12.8584 76.5874 13.5268C76.5874 14.5998 76.3587 15.4617 75.919 16.1125C75.4792 16.7634 74.8987 17.2383 74.1951 17.5901C73.4915 17.9243 72.7176 18.153 71.8556 18.2585C71.0113 18.3641 70.167 18.4169 69.3578 18.4169H62.3218V18.0299H63.342V0.844295H62.3218V0.404541H67.8979C68.408 0.404541 68.9533 0.422131 69.5337 0.422131C70.1318 0.439721 70.7123 0.492492 71.3103 0.580443C71.9084 0.668393 72.4713 0.809114 72.999 0.985016C73.5443 1.16092 74.0192 1.42477 74.4238 1.74139C74.8284 2.05801 75.1626 2.46259 75.4089 2.9727C75.6551 3.46523 75.7782 4.08088 75.7782 4.78449C75.7782 5.85749 75.4616 6.73699 74.846 7.38783C74.2303 8.05626 73.386 8.49601 72.313 8.74227H72.2074V9.00612H72.225ZM69.2523 8.67191C69.6569 8.60155 70.0439 8.47842 70.4308 8.30252C70.8178 8.12662 71.1696 7.88035 71.4862 7.56373C71.8029 7.24711 72.0491 6.87772 72.2426 6.43796C72.4361 5.99821 72.5241 5.50568 72.5241 4.92521C72.5241 4.48546 72.4361 4.0457 72.2426 3.58836C72.0491 3.13101 71.8029 2.72644 71.4862 2.35705C71.1696 1.98765 70.8178 1.65344 70.4308 1.38959C70.0439 1.12574 69.6393 0.949836 69.2523 0.861885H69.2347C69.0412 0.861885 68.8301 0.861885 68.6015 0.879475C68.3728 0.897065 68.1265 0.897065 67.8803 0.897065H66.5962V8.6895H69.2523V8.67191ZM68.4959 18.0299C69.1819 18.0299 69.7976 17.9419 70.3429 17.7484C70.9058 17.5549 71.3807 17.2735 71.7853 16.9041C72.1899 16.5347 72.5065 16.0774 72.7351 15.5497C72.9638 15.022 73.0694 14.4239 73.0694 13.7379C73.0694 12.9991 72.9638 12.3307 72.7351 11.7502C72.5065 11.1697 72.2074 10.6948 71.8556 10.3078C71.4862 9.92081 71.0817 9.62178 70.6243 9.4107C70.167 9.19962 69.6921 9.07648 69.2347 9.0413H66.5962V18.0299H68.4959Z" fill="white"/>
<path d="M91.3632 12.9639V18.4169H79.2964V18.0299H80.5277V0.844295H79.2964V0.404541H85.3474V0.844295H83.8698V18.0299H86.2621C86.7722 18.0299 87.2295 18.0299 87.6693 18.0123C88.1091 17.9947 88.4784 17.9771 88.8127 17.9419C89.569 17.854 90.1495 17.2207 90.5365 16.0422C90.6772 15.4793 90.7828 14.9516 90.8707 14.4415C90.9587 13.9314 90.9938 13.4388 90.9938 12.9991H91.3632V12.9639Z" fill="white"/>
<path d="M122.815 0.879523C122.076 0.879523 121.425 1.02024 120.88 1.31928C120.334 1.61831 119.877 2.00529 119.508 2.49782C119.138 2.99034 118.822 3.55323 118.593 4.16888C118.364 4.78454 118.188 5.41778 118.065 6.06862C117.942 6.71945 117.854 7.3527 117.819 7.98594C117.784 8.61919 117.749 9.16448 117.749 9.65701C117.749 10.5189 117.836 11.416 118.012 12.3131C118.188 13.2102 118.505 14.0545 118.945 14.8109C119.402 15.5673 120 16.2005 120.774 16.7282C121.53 17.256 122.515 17.5374 123.712 17.6078C124.433 17.5726 125.101 17.3615 125.699 16.9569C126.297 16.5523 126.807 16.0774 127.23 15.4969C127.669 14.9165 128.004 14.3184 128.267 13.6676C128.514 13.0167 128.672 12.4187 128.725 11.8734H128.936V17.168H128.619L128.549 15.4793H128.32C127.335 16.5699 126.297 17.3439 125.224 17.7661C124.151 18.2058 123.114 18.4169 122.111 18.4169C120.756 18.4169 119.543 18.1882 118.47 17.7309C117.397 17.2735 116.5 16.6403 115.743 15.8487C115.004 15.0572 114.424 14.1249 114.037 13.0695C113.65 11.9965 113.457 10.8707 113.457 9.6746C113.457 8.47847 113.65 7.31752 114.037 6.19175C114.424 5.06598 114.987 4.08093 115.726 3.20142C116.464 2.32192 117.379 1.61831 118.47 1.1082C119.56 0.580491 120.827 0.334229 122.252 0.334229C123.149 0.334229 124.081 0.52772 125.048 0.914703C126.016 1.30169 127.106 2.00529 128.338 3.00793H128.549V1.77662H128.936V6.2797H128.461C128.426 5.64645 128.25 5.01321 127.951 4.37996C127.652 3.72913 127.247 3.14865 126.737 2.63854C126.227 2.11083 125.647 1.68867 124.978 1.35446C124.31 1.03783 123.588 0.879523 122.815 0.879523Z" fill="white"/>
<path d="M147.177 18.0299H148.461V18.4169H141.548V18.0299H142.955V17.854H142.938L136.218 9.53383H135.972C135.972 10.255 135.972 10.9586 135.954 11.6446C135.937 12.3483 135.937 13.0343 135.937 13.7379V18.0475H137.027V18.4344H131.451V18.0475H132.542V0.844295H131.451V0.404541H136.904V0.844295H135.937V9.02372H136.148L144.749 1.05538H144.802V0.844295H142.375V0.404541L147.581 0.457311V0.897065L145.594 0.949836H145.523L138.874 7.31747H138.821V7.4406H138.839L147.177 18.0299Z" fill="white"/>
<path d="M170.554 13.175V18.6279H158.487V18.2409H159.719V1.05535H158.487V0.615601H164.538V1.05535H163.061V18.2409H165.453C165.963 18.2409 166.42 18.2409 166.86 18.2233C167.3 18.2058 167.669 18.1882 168.004 18.153C168.76 18.065 169.34 17.4318 169.727 16.2532C169.868 15.6904 169.974 15.1627 170.062 14.6525C170.15 14.1424 170.185 13.6499 170.185 13.2101H170.554V13.175Z" fill="white"/>
<path d="M173.509 0.615601H178.927V1.05535H177.784V18.2409H178.927V18.6279H173.509V18.2409H174.582V1.05535H173.509V0.615601Z" fill="white"/>
<path d="M194.987 13.2277C195.022 14.0721 194.899 14.846 194.6 15.532C194.301 16.2181 193.896 16.7985 193.369 17.2911C192.841 17.7836 192.208 18.153 191.451 18.4168C190.712 18.6807 189.886 18.8038 189.006 18.8038C188.32 18.8038 187.704 18.7334 187.159 18.6103C186.596 18.4872 186.086 18.3113 185.594 18.0826C185.101 17.8715 184.661 17.6253 184.239 17.3614C183.817 17.0976 183.412 16.8161 183.008 16.5347H182.797V18.6279H182.252L182.269 12.014H182.709C182.762 12.8935 182.92 13.7203 183.184 14.4766C183.448 15.233 183.852 15.8838 184.362 16.4291C184.872 16.9744 185.523 17.3966 186.297 17.7132C187.071 18.0123 188.004 18.1706 189.077 18.1706C189.657 18.1706 190.167 18.1178 190.66 17.9947C191.135 17.8715 191.557 17.6956 191.909 17.467C192.26 17.2383 192.542 16.9568 192.735 16.6402C192.929 16.3236 193.034 15.9718 193.034 15.5672C193.034 15.2858 192.982 15.0219 192.876 14.7933C192.806 14.5822 192.665 14.3887 192.436 14.1776C192.208 13.9841 191.926 13.7906 191.592 13.6147C191.258 13.4388 190.871 13.2805 190.466 13.1046C190.044 12.9463 189.622 12.7704 189.164 12.6297L188.514 12.3482C187.792 12.0668 187.036 11.7502 186.28 11.4159C185.523 11.0641 184.837 10.642 184.239 10.1319C183.641 9.62175 183.149 9.02369 182.762 8.33767C182.375 7.63407 182.181 6.80733 182.181 5.80469C182.181 4.99554 182.339 4.23917 182.639 3.57074C182.938 2.90231 183.36 2.32184 183.887 1.84691C184.415 1.37197 185.031 1.00258 185.752 0.721136C186.456 0.457284 187.23 0.298972 188.074 0.263792C188.883 0.246202 189.71 0.386923 190.554 0.703546C191.381 1.02017 192.331 1.60064 193.369 2.44497H193.58V1.23125H194.055V6.05095H193.58C193.421 5.27699 193.21 4.55579 192.946 3.90495C192.682 3.25412 192.331 2.70882 191.909 2.23389C191.469 1.75895 190.941 1.40715 190.29 1.1433C189.639 0.897037 188.865 0.773906 187.968 0.773906C187.37 0.773906 186.825 0.844267 186.297 1.00258C185.77 1.1433 185.312 1.37197 184.925 1.63582C184.538 1.91727 184.222 2.25148 183.993 2.67364C183.764 3.07822 183.641 3.55315 183.624 4.09844C183.729 4.50302 183.905 4.85482 184.169 5.17144C184.433 5.48807 184.749 5.76951 185.154 6.01577C185.541 6.26203 185.981 6.49071 186.456 6.70179C186.931 6.89528 187.441 7.08877 187.986 7.28226L188.373 7.44057C189.024 7.68684 189.71 7.96828 190.431 8.30249C191.152 8.6367 191.856 9.02369 192.489 9.48103C193.14 9.93837 193.685 10.4837 194.125 11.0993C194.6 11.715 194.881 12.4362 194.987 13.2277Z" fill="white"/>
<path d="M199.648 1.05537C198.487 1.05537 197.678 1.19609 197.256 1.49512C197.08 1.63584 196.904 1.84692 196.746 2.12837C196.587 2.40981 196.447 2.76161 196.341 3.16618C196.253 3.46522 196.2 3.78184 196.165 4.11605C196.13 4.45027 196.113 4.80207 196.077 5.17146L196.007 5.9982H195.743L195.901 0.598022H210.237L210.396 5.9982H210.114C210.114 4.85484 210.044 3.95774 209.886 3.3245C209.727 2.69125 209.446 2.21632 209.059 1.8821C208.865 1.7062 208.654 1.56548 208.426 1.45994C208.197 1.3544 207.933 1.26645 207.634 1.19609C207.335 1.14332 206.966 1.09055 206.543 1.07296C206.121 1.05537 205.629 1.05537 205.066 1.05537H204.943V18.2409H206.139V18.6279H200.352V18.2409H201.372V1.05537H199.648Z" fill="white"/>
<path d="M95.7607 1.70618C96.4643 1.12571 97.2031 0.703546 97.9771 0.457284C98.751 0.211022 99.5602 0.0878906 100.387 0.0878906C101.161 0.0878906 101.917 0.175841 102.691 0.369333C103.448 0.562825 104.186 0.826677 104.908 1.17848C105.629 1.53028 106.297 1.95245 106.93 2.42738C107.564 2.9199 108.127 3.4652 108.619 4.06326C109.375 5.04831 109.956 6.1389 110.343 7.29985C110.747 8.47839 110.941 9.7097 110.941 10.9762C110.941 12.2075 110.73 13.3685 110.273 14.4766C109.815 15.5848 109.112 16.5523 108.127 17.4142C107.441 17.9595 106.702 18.3641 105.875 18.6103C105.048 18.8566 104.204 18.9797 103.324 18.9797C101.759 18.9797 100.246 18.6103 98.7862 17.8715C98.0826 17.5197 97.4318 17.08 96.8161 16.5699C96.2005 16.0422 95.6551 15.4617 95.1802 14.8284C94.4766 13.9665 93.9489 12.9639 93.5619 11.8029C93.1749 10.642 92.9814 9.44585 92.9814 8.19695C92.9814 6.91287 93.2101 5.69915 93.6499 4.55579C94.0896 3.44761 94.7932 2.48015 95.7607 1.70618ZM101.284 2.48015C100.774 2.11076 100.246 1.81173 99.7185 1.60064C99.1908 1.37197 98.6455 1.26643 98.065 1.26643C97.3614 1.26643 96.6754 1.53028 96.007 2.0404C95.4968 2.48015 95.1274 2.95509 94.8988 3.44761C94.6701 3.95772 94.547 4.50302 94.547 5.08349C94.547 5.71674 94.6701 6.40275 94.8988 7.10636C95.145 7.80997 95.4265 8.49598 95.7783 9.182C96.1301 9.86801 96.4995 10.5013 96.9216 11.0993C97.3438 11.6974 97.7308 12.2251 98.0826 12.6648C98.4696 13.175 98.9269 13.7378 99.4898 14.3359C100.035 14.934 100.633 15.4969 101.284 16.0246C101.917 16.5523 102.603 16.9744 103.307 17.3262C104.01 17.678 104.714 17.8539 105.418 17.8539C105.84 17.8539 106.244 17.7836 106.649 17.6253C107.054 17.467 107.458 17.2383 107.863 16.9568C108.777 16.1829 109.235 15.2154 109.235 14.0369C109.235 13.2277 109.059 12.4362 108.689 11.6446C108.338 10.7827 107.898 9.95597 107.388 9.16441C106.878 8.37285 106.35 7.65166 105.857 7.036L105.506 6.43793L104.872 5.75192" fill="#DC2219"/>
<path d="M109.763 0.31665L94.688 19.6658" stroke="#DC2219" stroke-width="2" stroke-miterlimit="10"/>
</g>
<defs>
<clipPath id="clip0_312_691">
<rect width="210.396" height="20" fill="white"/>
</clipPath>
</defs>
</svg>
